# xmcd
#
# Track frame offsets:
# 150
# 13472
# 25267
# 40877
# 56608
# 74234
# 88681
# 101262
# 121228
# 135232
# 150724
# 168496
# 184263
# 201158
# 215512
#
# Disc length: 3095 seconds
#
#
# Revision: 0
# Processed by: cddbd v1.5.2PL0 Copyright (c) Steve Scherf et al.
# Submitted via: FreeRIP 2.951 
#
DISCID=d60c150f
DTITLE=Helenice Cunha - Rainha Das Comitivas 1
DYEAR=2006
DGENRE=Sertanejo
TTITLE0=Arrebentando De Amor
TTITLE1=Vou Te Roubar Um Beijo
TTITLE2=Peão De Barretos
TTITLE3=Nossa Senhora Aparecida
TTITLE4=Touro Bandido
TTITLE5=Eu Vou Te Laçar
TTITLE6=Toca Da Onça
TTITLE7=Saga Boiadeira
TTITLE8=Convite De Peão
TTITLE9=Amor Explosivo
TTITLE10=Ciranda Do Amor
TTITLE11=Fontes De Desejo
TTITLE12=Jeitão De Cabocla
TTITLE13=Se Liga, Brasil!
TTITLE14=Regência Do Destino
EXTD=
EXTT0=
EXTT1=
EXTT2=
EXTT3=
EXTT4=
EXTT5=
EXTT6=
EXTT7=
EXTT8=
EXTT9=
EXTT10=
EXTT11=
EXTT12=
EXTT13=
EXTT14=
PLAYORDER=
